<?xml version="1.0" encoding="utf-8"?>
<!-- Generator: Adobe Illustrator 26.0.3, SVG Export Plug-In . SVG Version: 6.00 Build 0)  -->
<svg version="1.1" id="图层_1" xmlns="http://www.w3.org/2000/svg" xmlns:xlink="http://www.w3.org/1999/xlink" x="0px" y="0px"
	 viewBox="0 0 80 16" style="enable-background:new 0 0 80 16;" xml:space="preserve">
<style type="text/css">
	.st0{fill:url(#SVGID_1_);}
	.st1{fill:url(#SVGID_00000034801058372013213960000003014263319675834030_);}
	.st2{fill:url(#SVGID_00000083790567265417281060000001178672535437136053_);}
	.st3{fill:url(#SVGID_00000110440330812702329890000000488701485407766183_);}
	.st4{fill:url(#SVGID_00000013871681745567144930000016798581598051261356_);}
	.st5{fill:url(#SVGID_00000011740490996592591880000017933808336202425001_);}
	.st6{fill:url(#SVGID_00000005252727605951195610000010480999625573320376_);}
	.st7{fill:url(#SVGID_00000067926761953954330600000018019956127661683072_);}
	.st8{fill:url(#SVGID_00000041280267053712408890000016532853592234028434_);}
</style>
<linearGradient id="SVGID_1_" gradientUnits="userSpaceOnUse" x1="6.6741" y1="15.8663" x2="6.6741" y2="-9.094947e-13">
	<stop  offset="0" style="stop-color:#0632A9"/>
	<stop  offset="1" style="stop-color:#205DE5"/>
</linearGradient>
<path class="st0" d="M9,0H3.2L0,15.9h3.7L4.9,10h2.5c4,0,6-2.8,6-5.6C13.3,1.6,11.5,0,9,0z M7.5,6.7H5.5l0.7-3.4h2.1
	c1,0,1.3,0.6,1.3,1.5C9.6,5.3,9.2,6.7,7.5,6.7z"/>
<linearGradient id="SVGID_00000103263935474925773420000005653136155389757323_" gradientUnits="userSpaceOnUse" x1="17.7159" y1="2.6964" x2="17.7159" y2="0">
	<stop  offset="0" style="stop-color:#0632A9"/>
	<stop  offset="1" style="stop-color:#205DE5"/>
</linearGradient>
<polygon style="fill:url(#SVGID_00000103263935474925773420000005653136155389757323_);" points="19.2,2.7 19.7,0 16.2,0 15.7,2.7 
	"/>
<linearGradient id="SVGID_00000071517202633190048780000015183783467811664050_" gradientUnits="userSpaceOnUse" x1="15.9666" y1="15.8663" x2="15.9666" y2="4.3454">
	<stop  offset="0" style="stop-color:#0632A9"/>
	<stop  offset="1" style="stop-color:#205DE5"/>
</linearGradient>
<polygon style="fill:url(#SVGID_00000071517202633190048780000015183783467811664050_);" points="16.6,15.9 18.9,4.3 15.4,4.3 
	13.1,15.9 "/>
<linearGradient id="SVGID_00000008855728692862952060000014487243664219863465_" gradientUnits="userSpaceOnUse" x1="22.7075" y1="15.8663" x2="22.7075" y2="-9.094947e-13">
	<stop  offset="0" style="stop-color:#0632A9"/>
	<stop  offset="1" style="stop-color:#205DE5"/>
</linearGradient>
<path style="fill:url(#SVGID_00000008855728692862952060000014487243664219863465_);" d="M24.6,15.9l0.6-2.9h-1.3
	c-0.4,0-0.6-0.2-0.6-0.5c0-0.1,0-0.2,0-0.3L25.7,0h-3.5l-2.4,12.1c-0.1,0.3-0.1,0.6-0.1,1c0,1.6,1.1,2.8,3.1,2.8H24.6z"/>
<linearGradient id="SVGID_00000167394302707301521310000005269168418171300254_" gradientUnits="userSpaceOnUse" x1="30.8301" y1="15.8663" x2="30.8301" y2="0.9136">
	<stop  offset="0" style="stop-color:#0632A9"/>
	<stop  offset="1" style="stop-color:#205DE5"/>
</linearGradient>
<path style="fill:url(#SVGID_00000167394302707301521310000005269168418171300254_);" d="M32.1,15.9l0.6-2.9h-1.1
	c-0.4,0-0.7-0.2-0.7-0.6c0,0,0-0.2,0-0.3L32,7h1.8l0.5-2.7h-1.8l0.7-3.4h-3.5L29,4.3h-1L27.4,7h1l-1,5.1c0,0.2-0.1,0.5-0.1,1
	c0,1.6,1.1,2.8,3.1,2.8H32.1z"/>
<linearGradient id="SVGID_00000180334287824508000180000000863400134633984190_" gradientUnits="userSpaceOnUse" x1="39.8886" y1="16" x2="39.8886" y2="3.7437">
	<stop  offset="0" style="stop-color:#0632A9"/>
	<stop  offset="1" style="stop-color:#205DE5"/>
</linearGradient>
<path style="fill:url(#SVGID_00000180334287824508000180000000863400134633984190_);" d="M40.9,3.7c-1.6,0-3,0.6-3.8,1.4
	C36,6.3,35.4,7.5,35,9.9c-0.1,0.6-0.2,1.4-0.2,2.2c0,2.7,2.1,4,4.2,4c1.6,0,3-0.6,3.8-1.4c1.1-1.1,1.6-2.3,2.1-4.7
	C44.9,9.3,45,8.4,45,7.7C45,5,42.9,3.7,40.9,3.7z M41.3,9.9c-0.2,1.2-0.5,2.1-1,2.6c-0.3,0.3-0.6,0.4-1.1,0.4
	c-0.7,0-1.1-0.5-1.1-1.2c0-0.2,0-0.6,0.2-1.7c0.2-1.2,0.5-2.1,1-2.6c0.3-0.3,0.6-0.4,1.1-0.4c0.7,0,1.1,0.5,1.1,1.2
	C41.6,8.3,41.6,8.7,41.3,9.9z"/>
<linearGradient id="SVGID_00000139271282910521355700000006049587748016484504_" gradientUnits="userSpaceOnUse" x1="52.4457" y1="15.8663" x2="52.4457" y2="3.8774">
	<stop  offset="0" style="stop-color:#0632A9"/>
	<stop  offset="1" style="stop-color:#205DE5"/>
</linearGradient>
<polygon style="fill:url(#SVGID_00000139271282910521355700000006049587748016484504_);" points="51.4,15.9 58,3.9 54.3,3.9 
	51,10.6 50.4,3.9 46.9,3.9 48.7,15.9 "/>
<linearGradient id="SVGID_00000115497922834236157010000010492144582675780023_" gradientUnits="userSpaceOnUse" x1="62.6852" y1="16" x2="62.6852" y2="3.7437">
	<stop  offset="0" style="stop-color:#0632A9"/>
	<stop  offset="1" style="stop-color:#205DE5"/>
</linearGradient>
<path style="fill:url(#SVGID_00000115497922834236157010000010492144582675780023_);" d="M67.6,11c0.2-0.9,0.4-2,0.4-2.9
	c0-2.8-1.9-4.4-4.5-4.4c-4.1,0-6.2,3.7-6.2,8c0,3.4,2.7,4.3,4.6,4.3c1.8,0,3.5-0.6,4.7-1.8L65,12c-0.7,0.7-1.6,1.1-2.6,1.1
	c-1.2,0-1.8-0.6-1.8-1.6c0-0.2,0-0.3,0-0.5H67.6z M63.3,6.6c0.9,0,1.4,0.6,1.4,1.5c0,0.1,0,0.4-0.1,0.6h-3.5
	C61.6,7.2,62.4,6.6,63.3,6.6z"/>
<linearGradient id="SVGID_00000092420758380460480990000015822629271278998166_" gradientUnits="userSpaceOnUse" x1="-906.5327" y1="515.5785" x2="-906.5327" y2="514.8209" gradientTransform="matrix(79.6657 0 0 -16 72293.8125 8253)">
	<stop  offset="0" style="stop-color:#0632A9"/>
	<stop  offset="1" style="stop-color:#205DE5"/>
</linearGradient>
<path style="fill:url(#SVGID_00000092420758380460480990000015822629271278998166_);" d="M72.2,15.9l1.4-7.2c0.2-1.1,1-1.8,1.8-1.8
	c0.7,0,1,0.5,1.1,0.7l3-2.7c-0.6-0.8-1.4-1.1-2.5-1.1c-1.1,0-2.2,0.4-2.9,1.2l0.2-1h-3.3l-2.4,12H72.2z"/>
</svg>
